<svg xmlns="http://www.w3.org/2000/svg" version="1.1" xmlns:xlink="http://www.w3.org/1999/xlink" xmlns:svgjs="http://svgjs.dev/svgjs" width="404" height="235"><text x="10" y="225.1" fill="#000000" opacity="0.2">b82924c - 2023-10-18T22:57:07.904Z - abaplint.app</text><line x1="230" y1="158" x2="230" y2="208" stroke-dasharray="5 5" stroke-width="2" stroke="#000000"></line><line x1="166" y1="158" x2="166" y2="208" stroke-dasharray="5 5" stroke-width="2" stroke="#000000"></line><line x1="102" y1="158" x2="102" y2="208" stroke-dasharray="5 5" stroke-width="2" stroke="#000000"></line><line x1="38" y1="158" x2="38" y2="208" stroke-dasharray="5 5" stroke-width="2" stroke="#000000"></line><style>text { font-family: monospace;}</style><text x="5" y="22.1" fill="#000000">ZCL_ABAPGIT_FOLDER_LOGIC</text><g transform="matrix(0.7071067811865476,-0.7071067811865475,0.7071067811865475,0.7071067811865476,-100.5929291125633,73.1471862576143)"><rect width="145" height="32" rx="5" ry="5" x="38" y="126" fill="#00ff00" opacity="0.5"></rect><rect width="145" height="32" rx="5" ry="5" x="38" y="126" fill="transparent" stroke-width="2" stroke="#000000"></rect><text x="43" y="148.1" fill="#000000">get_instance</text></g><g transform="matrix(0.7071067811865476,-0.7071067811865475,0.7071067811865475,0.7071067811865476,-81.84776310850236,118.40202025355333)"><rect width="145" height="32" rx="5" ry="5" x="102" y="126" fill="#00ff00" opacity="0.5"></rect><rect width="145" height="32" rx="5" ry="5" x="102" y="126" fill="transparent" stroke-width="2" stroke="#000000"></rect><text x="107" y="148.1" fill="#000000">get_parent</text></g><g transform="matrix(0.7071067811865476,-0.7071067811865475,0.7071067811865475,0.7071067811865476,-63.1025971044414,163.65685424949237)"><rect width="145" height="32" rx="5" ry="5" x="166" y="126" fill="#00ff00" opacity="0.5"></rect><rect width="145" height="32" rx="5" ry="5" x="166" y="126" fill="transparent" stroke-width="2" stroke="#000000"></rect><text x="171" y="148.1" fill="#000000">package_to_path</text></g><g transform="matrix(0.7071067811865476,-0.7071067811865475,0.7071067811865475,0.7071067811865476,-44.35743110038044,208.91168824543138)"><rect width="145" height="32" rx="5" ry="5" x="230" y="126" fill="#00ff00" opacity="0.5"></rect><rect width="145" height="32" rx="5" ry="5" x="230" y="126" fill="transparent" stroke-width="2" stroke="#000000"></rect><text x="235" y="148.1" fill="#000000">path_to_package</text></g><line x1="165" y1="183" x2="103" y2="183" stroke-width="2" stroke="#000000"></line><polygon points="103,183 108,189 108,177" fill="white" stroke-width="2" stroke="#000000"></polygon></svg>