<svg xmlns="http://www.w3.org/2000/svg" width="991" height="345"><path stroke="#000" d="M644 284h24"/><path fill="#0f0" d="M669 273h297v34q0 10-10 10H679q-10 0-10-10z" opacity=".5"/><path d="M669 273v-12q0-10 10-10h277q10 0 10 10v12z"/><rect width="297" height="66" x="669" y="251" fill="transparent" stroke="#000" stroke-width="2" rx="10" ry="10"/><path stroke="#000" d="M644 171h24"/><path fill="#0f0" d="M669 138h297v78q0 10-10 10H679q-10 0-10-10z" opacity=".5"/><path d="M669 138v-12q0-10 10-10h277q10 0 10 10v12z"/><rect width="297" height="110" x="669" y="116" fill="transparent" stroke="#000" stroke-width="2" rx="10" ry="10"/><path stroke="#000" d="M644 58h24"/><path fill="#0f0" d="M669 47h297v34q0 10-10 10H679q-10 0-10-10z" opacity=".5"/><path d="M669 47V35q0-10 10-10h277q10 0 10 10v12z"/><rect width="297" height="66" x="669" y="25" fill="transparent" stroke="#000" stroke-width="2" rx="10" ry="10"/><path d="M347 47h297v263q0 10-10 10H357q-10 0-10-10z" opacity=".5"/><path d="M347 47V35q0-10 10-10h277q10 0 10 10v12z"/><rect width="297" height="295" x="347" y="25" fill="transparent" stroke="#000" stroke-width="2" rx="10" ry="10"/><path stroke="#000" d="M322 298h24"/><path fill="#0f0" d="M25 298h297v12q0 10-10 10H35q-10 0-10-10z" opacity=".5"/><path d="M25 298v-12q0-10 10-10h277q10 0 10 10v12z"/><rect width="297" height="44" x="25" y="276" fill="transparent" stroke="#000" stroke-width="2" rx="10" ry="10"/><path stroke="#000" d="M322 229h24"/><path fill="#0f0" d="M25 229h297v12q0 10-10 10H35q-10 0-10-10z" opacity=".5"/><path d="M25 229v-12q0-10 10-10h277q10 0 10 10v12z"/><rect width="297" height="44" x="25" y="207" fill="transparent" stroke="#000" stroke-width="2" rx="10" ry="10"/><path stroke="#000" d="M322 149h24"/><path fill="#0f0" d="M25 138h297v34q0 10-10 10H35q-10 0-10-10z" opacity=".5"/><path d="M25 138v-12q0-10 10-10h277q10 0 10 10v12z"/><rect width="297" height="66" x="25" y="116" fill="transparent" stroke="#000" stroke-width="2" rx="10" ry="10"/><path stroke="#000" d="M322 58h24"/><path fill="#0f0" d="M25 47h297v34q0 10-10 10H35q-10 0-10-10z" opacity=".5"/><path d="M25 47V35q0-10 10-10h277q10 0 10 10v12z"/><rect width="297" height="66" x="25" y="25" fill="transparent" stroke="#000" stroke-width="2" rx="10" ry="10"/><style>text{font-family:monospace}</style><text x="29" y="42.1" fill="#fff">/src/objects/core</text><path fill="#fff" stroke="#000" d="m346 58-5 6V52z"/><text x="29" y="64.1">CLAS ZCL_ABAPGIT_FILE_DESERIALIZE</text><text x="29" y="86.1">CLAS ZCL_ABAPGIT_SERIALIZE</text><text x="29" y="133.1" fill="#fff">/src/repo</text><path fill="#fff" stroke="#000" d="m346 149-5 6v-12z"/><text x="29" y="155.1">CLAS ZCL_ABAPGIT_DOT_ABAPGIT</text><text x="29" y="177.1">CLAS ZCL_ABAPGIT_REPO</text><text x="29" y="224.1" fill="#fff">/src/ui/pages</text><path fill="#fff" stroke="#000" d="m346 229-5 6v-12z"/><text x="29" y="246.1">CLAS ZCL_ABAPGIT_GUI_PAGE_DATA</text><text x="29" y="293.1" fill="#fff">/src/ui/routing</text><path fill="#fff" stroke="#000" d="m346 298-5 6v-12z"/><text x="29" y="315.1">CLAS ZCL_ABAPGIT_GUI_ROUTER</text><text x="351" y="42.1" fill="#fff">/src/data</text><text x="673" y="42.1" fill="#fff">/src</text><path fill="#fff" stroke="#000" d="m668 58-5 6V52z"/><text x="673" y="64.1">CLAS ZCX_ABAPGIT_EXCEPTION</text><text x="673" y="86.1">INTF ZIF_ABAPGIT_DEFINITIONS</text><text x="673" y="133.1" fill="#fff">/src/json</text><path fill="#fff" stroke="#000" d="m668 171-5 6v-12z"/><text x="673" y="155.1">CLAS ZCL_ABAPGIT_AJSON</text><text x="673" y="177.1">CLAS ZCX_ABAPGIT_AJSON_ERROR</text><text x="673" y="199.1">INTF ZIF_ABAPGIT_AJSON</text><text x="673" y="221.1">CLAS ZCL_ABAPGIT_AJSON_FILTER_LIB</text><text x="673" y="268.1" fill="#fff">/src/utils</text><path fill="#fff" stroke="#000" d="m668 284-5 6v-12z"/><text x="673" y="290.1">CLAS ZCL_ABAPGIT_CONVERT</text><text x="673" y="312.1">CLAS ZCL_ABAPGIT_HASH</text><text x="25" y="340.1" opacity=".2">f009ec0 - 2023-01-06T22:48:28.364Z - abaplint.app</text></svg>